<svg xmlns="http://www.w3.org/2000/svg" fill="none" viewBox="0 0 101 18"><path fill="#111" d="M1.22 16.47a6.8 6.8 0 0 1-1.2-4.34v-6.26a6.9 6.9 0 0 1 1.18-4.38c.8-1 2.15-1.5 4.08-1.49 1.92 0 3.22.44 3.9 1.31a5.51 5.51 0 0 1 1.14 3.75v1.47h-3.55v-1.59a8.15 8.15 0 0 0-.11-1.25 1.39 1.39 0 0 0-.4-.8 1.35 1.35 0 0 0-1-.3 1.28 1.28 0 0 0-.74.1c-.23.12-.42.3-.54.52a4.46 4.46 0 0 0-.3 1.84v7.95a3.9 3.9 0 0 0 .34 1.84 1.29 1.29 0 0 0 1.24.61 1.17 1.17 0 0 0 1.2-.62c.21-.58.3-1.2.27-1.83v-1.67h3.55v1.45a5.94 5.94 0 0 1-1.05 3.85c-.76.92-2.06 1.37-3.91 1.37-1.86 0-3.3-.5-4.1-1.53Zm13.93-16.23h4.07l3.43 17.55h-3.38l-.6-3.88h-2.85l-.69 3.86h-3.43l3.46-17.53Zm3.13 11.47-1.08-7.06-1.07 7.06h2.16Zm7-8.83h-2.77v-2.64h9.19v2.64h-2.75v14.89h-3.67v-14.89Z"/><path fill="#444" d="M38.91.24h6.98v1.82h-4.46v5.8h3.62v1.73h-3.62v6.42h4.5v1.76h-7.02v-17.53Zm9.04 0h1.72l5.14 11.64v-11.64h2.1v17.55h-1.6l-5.15-11.96v11.94h-2.13l-.08-17.53Zm11.73 0h6.96v1.82h-4.46v5.8h3.65v1.73h-3.61v6.42h4.47v1.76h-7.01v-17.53Zm9.03 0h3.62a6.12 6.12 0 0 1 4 1.1c.86.72 1.28 1.91 1.28 3.56 0 2.23-.74 3.59-2.22 4.08l2.57 8.79h-2.43l-2.36-8.23h-1.95v8.23h-2.51v-17.53Zm3.43 7.52a3.38 3.38 0 0 0 2.32-.63 2.95 2.95 0 0 0 .7-2.27 4.78 4.78 0 0 0-.25-1.67 1.57 1.57 0 0 0-.33-.53 1.62 1.62 0 0 0-.53-.37 4.18 4.18 0 0 0-1.76-.3h-1.1v5.8l.95-.03Zm8.85 8.71a7.57 7.57 0 0 1-1.09-4.47v-5.85a11.1 11.1 0 0 1 .43-3.34 3.75 3.75 0 0 1 1.5-2.02 5.17 5.17 0 0 1 2.87-.7 4.62 4.62 0 0 1 1.94.23 4.53 4.53 0 0 1 1.65 1.01 5.74 5.74 0 0 1 1.1 3.87v.65h-2.36v-.54a9.7 9.7 0 0 0-.15-1.94 1.67 1.67 0 0 0-.66-1.03 2.63 2.63 0 0 0-1.47-.34 2.2 2.2 0 0 0-1.55.47 2.12 2.12 0 0 0-.66 1.23 12.06 12.06 0 0 0-.15 2.08v6.51c-.07 1 .1 1.98.5 2.9.24.28.53.5.87.65a2.48 2.48 0 0 0 2.13-.04c.33-.17.62-.4.84-.69a6.62 6.62 0 0 0 .52-3.05v-1.24h-2.28v-1.73h4.55v8.68h-1.56l-.24-2.02a3.09 3.09 0 0 1-1.2 1.66 3.23 3.23 0 0 1-2 .57 4.09 4.09 0 0 1-1.97-.31 3.98 3.98 0 0 1-1.56-1.2Zm13.74-4.89-3.88-11.34h2.33l2.75 8.46 2.71-8.46h2.36l-3.86 11.34v6.19h-2.4l-.01-6.19Z"/></svg>
