<?xml version="1.0" standalone="no"?>
<!DOCTYPE svg PUBLIC "-//W3C//DTD SVG 20010904//EN"
 "http://www.w3.org/TR/2001/REC-SVG-20010904/DTD/svg10.dtd">
<svg version="1.0" xmlns="http://www.w3.org/2000/svg"
 width="960.000000pt" height="960.000000pt" viewBox="0 0 960.000000 960.000000"
 preserveAspectRatio="xMidYMid meet">
<metadata>
Created by potrace 1.14, written by Peter Selinger 2001-2017
</metadata>
<g transform="translate(0.000000,960.000000) scale(0.100000,-0.100000)"
fill="#000000" stroke="none">
<path d="M5987 8754 c-17 -25 -32 -49 -33 -52 0 -4 -7 -23 -15 -42 -9 -19 -26
-66 -39 -105 -12 -38 -25 -77 -28 -85 -3 -8 -6 -19 -7 -25 -2 -5 -10 -39 -19
-75 -8 -36 -18 -81 -22 -100 -3 -19 -7 -42 -9 -50 -2 -8 -4 -20 -4 -27 -1 -8
-15 -10 -43 -8 -236 23 -842 22 -1178 0 -113 -7 -224 -16 -272 -21 -118 -11
-135 -13 -188 -19 -30 -4 -59 -7 -63 -8 -5 -1 -14 12 -19 28 -20 63 -61 162
-95 230 -32 63 -101 165 -112 165 -4 0 -13 10 -20 23 -24 44 -116 83 -156 65
-27 -12 -62 -79 -71 -134 -3 -20 -8 -46 -10 -58 -21 -103 -26 -198 -37 -735
l-2 -74 -120 -60 c-404 -201 -771 -482 -1062 -813 -29 -32 -58 -66 -66 -74 -7
-8 -29 -35 -47 -60 -19 -25 -43 -54 -53 -65 -10 -11 -36 -48 -59 -82 -23 -35
-45 -63 -49 -63 -4 0 -9 -8 -13 -17 -3 -10 -28 -52 -55 -93 -28 -41 -56 -86
-64 -100 -7 -14 -28 -51 -46 -84 -48 -85 -147 -287 -156 -316 -4 -14 -14 -34
-21 -45 -8 -11 -14 -25 -14 -33 0 -7 -9 -34 -21 -59 -11 -25 -22 -53 -24 -62
-2 -9 -9 -29 -16 -46 -6 -16 -13 -34 -15 -40 -1 -5 -14 -48 -29 -95 -14 -47
-28 -92 -30 -100 -9 -41 -26 -96 -32 -106 -5 -6 -33 -25 -63 -43 -30 -17 -100
-61 -155 -96 -55 -36 -107 -68 -115 -72 -8 -4 -26 -14 -40 -24 -14 -10 -92
-61 -175 -114 -230 -150 -290 -189 -293 -197 -2 -5 -10 -8 -18 -8 -8 0 -14 -4
-14 -10 0 -5 -4 -10 -9 -10 -8 0 -78 -44 -136 -86 -20 -14 -249 -170 -428
-291 -53 -36 -97 -67 -97 -69 0 -2 56 -2 125 -1 69 1 125 6 125 10 0 5 5 5 11
1 10 -6 139 -9 164 -4 6 1 12 2 15 1 3 -1 61 -4 130 -6 139 -4 274 -12 335
-19 22 -3 67 -8 100 -11 210 -20 303 -40 417 -89 30 -13 38 -22 39 -44 1 -15
2 -38 4 -52 2 -14 6 -52 9 -85 4 -33 11 -82 16 -110 5 -27 11 -63 14 -80 13
-88 86 -386 103 -425 4 -8 8 -22 9 -30 2 -8 14 -44 27 -80 36 -97 38 -102 54
-138 8 -18 16 -41 18 -50 6 -33 134 -298 191 -397 19 -33 37 -68 41 -77 3 -10
9 -18 14 -18 5 0 9 -4 9 -9 0 -9 60 -105 80 -128 5 -7 10 -15 10 -18 0 -6 14
-26 109 -155 53 -71 90 -117 118 -146 7 -7 13 -15 13 -18 0 -18 285 -303 400
-400 151 -127 360 -281 420 -309 8 -4 35 -20 60 -36 25 -17 72 -44 105 -61 55
-29 75 -39 115 -62 8 -4 24 -12 35 -17 11 -5 50 -23 87 -40 216 -99 444 -175
698 -233 30 -6 57 -13 60 -13 3 -1 28 -5 55 -10 28 -4 59 -9 69 -11 10 -2 22
-1 26 1 7 4 -9 74 -40 170 -5 17 -11 41 -14 55 -14 62 -25 107 -34 138 -6 17
-8 32 -5 32 3 0 0 7 -7 15 -7 8 -10 15 -7 15 3 0 1 16 -5 36 -10 37 -15 60
-24 104 -3 14 -14 59 -24 100 -10 41 -21 86 -24 100 -29 144 -34 175 -30 179
2 2 14 -5 27 -17 13 -12 27 -22 32 -22 4 0 23 -11 41 -25 18 -14 35 -25 39
-25 3 0 24 -12 48 -27 73 -46 158 -91 310 -165 l147 -72 1 -36 c1 -34 2 -62
13 -230 3 -47 8 -134 12 -195 3 -60 7 -119 9 -130 1 -11 3 -26 4 -34 1 -11 30
-12 169 -7 92 4 185 8 207 11 116 12 196 22 235 30 8 2 36 7 63 11 26 3 47 9
47 13 4 76 10 141 14 161 4 14 9 39 11 55 5 29 21 116 31 163 2 12 6 32 8 45
2 12 7 40 12 62 4 22 9 49 10 60 1 11 3 20 4 20 1 0 4 11 6 25 2 14 11 61 19
105 16 87 18 102 35 220 6 44 14 96 17 115 3 19 6 49 7 67 1 25 16 48 69 103
37 40 67 74 67 76 0 3 10 15 23 27 12 12 44 51 70 87 26 36 56 76 67 88 11 13
20 30 20 38 0 8 4 14 9 14 5 0 14 12 20 28 6 15 21 38 32 52 l20 25 -6 -40
c-3 -22 -8 -60 -10 -84 -2 -24 -6 -51 -9 -60 -3 -9 -8 -38 -11 -66 -4 -27 -9
-61 -10 -75 -2 -14 -6 -38 -9 -55 -4 -16 -13 -68 -22 -115 -8 -47 -24 -128
-35 -180 -12 -52 -22 -104 -25 -115 -2 -11 -6 -32 -10 -47 -3 -15 -5 -30 -5
-33 0 -2 -5 -19 -10 -37 -15 -48 -17 -57 -35 -143 -3 -16 -9 -34 -12 -40 -4
-5 -7 -14 -8 -20 -5 -25 -34 -126 -54 -184 -32 -96 -76 -183 -126 -251 -24
-33 -41 -60 -36 -60 4 0 27 6 52 14 25 7 47 14 50 14 3 0 12 3 20 6 17 5 192
59 200 61 3 1 14 5 25 10 11 4 49 19 85 32 147 56 405 182 519 253 34 22 65
40 68 40 3 0 41 25 84 55 43 30 83 55 88 55 5 0 11 4 13 9 2 4 43 38 92 75
137 105 209 169 359 319 114 114 342 384 356 421 2 6 9 16 16 22 6 6 31 42 55
80 25 38 48 71 52 72 5 2 8 7 8 12 0 4 25 49 56 101 53 88 197 372 195 384 -1
3 6 20 15 37 26 50 138 368 150 423 3 17 11 53 20 88 1 4 2 8 4 10 1 1 3 10 6
19 2 10 5 24 7 30 4 16 25 113 31 148 3 14 7 34 10 46 2 12 7 45 11 75 4 30 8
56 10 59 2 3 7 39 10 80 4 41 9 89 11 105 2 17 6 102 9 190 7 184 10 205 30
205 8 0 15 4 15 8 0 12 145 86 217 111 55 18 109 33 178 47 115 23 385 23 510
-2 38 -7 61 -11 105 -18 19 -3 49 -8 65 -12 l30 -6 -32 30 c-17 17 -35 37 -40
46 -26 47 -370 399 -523 536 -46 41 -94 85 -107 97 -13 12 -23 19 -23 16 0 -4
-6 0 -12 9 -7 9 -56 50 -108 92 -52 42 -99 79 -105 84 -35 28 -209 155 -255
185 -30 20 -59 40 -65 44 -5 5 -48 33 -94 63 -62 40 -88 64 -99 90 -9 19 -16
37 -17 40 -2 16 -158 306 -166 308 -5 2 -9 7 -9 12 0 11 -63 114 -72 118 -5 2
-8 10 -8 17 0 7 -3 15 -7 17 -9 3 -53 64 -53 72 0 3 -6 14 -14 23 -8 10 -50
64 -93 119 -179 232 -371 425 -608 611 -103 81 -94 75 -135 103 -19 13 -37 27
-40 30 -3 3 -17 11 -32 19 -16 8 -28 18 -28 23 0 4 -5 8 -10 8 -9 0 -87 47
-100 60 -6 6 -93 53 -175 95 -33 16 -66 36 -73 43 -7 6 -17 12 -22 12 -5 0
-46 17 -92 39 -46 21 -100 44 -120 52 -21 7 -38 18 -39 24 0 5 -2 17 -3 25 -3
13 -10 75 -21 190 -2 19 -6 49 -9 65 -2 17 -8 64 -11 105 -4 41 -9 78 -11 82
-3 4 -7 29 -9 55 -2 26 -6 57 -8 68 -3 11 -8 47 -12 80 -3 32 -8 62 -10 65 -2
3 -6 30 -10 60 -13 98 -14 105 -20 130 -3 14 -8 43 -11 65 -15 103 -56 121
-107 49z m1437 -2334 c22 0 53 -24 86 -66 8 -10 31 -39 50 -64 19 -25 37 -47
40 -50 5 -5 16 -20 122 -159 32 -42 61 -80 65 -86 5 -5 22 -28 38 -50 17 -22
33 -41 38 -43 4 -2 7 -8 7 -12 0 -9 59 -101 70 -110 4 -3 9 -10 11 -15 2 -6
39 -72 82 -147 62 -109 77 -143 71 -160 -5 -13 -9 -25 -9 -28 -14 -51 -80
-174 -112 -206 -74 -76 -170 -46 -188 59 -7 39 -26 219 -29 277 -3 47 -14 76
-46 125 -11 17 -23 37 -27 45 -16 36 -175 270 -205 301 -45 48 -80 69 -105 65
-29 -6 -162 -76 -239 -127 -22 -14 -66 -43 -99 -65 -63 -41 -77 -51 -100 -71
-7 -7 -18 -13 -24 -13 -6 0 -11 -4 -11 -10 0 -5 -5 -10 -10 -10 -10 0 -248
-182 -307 -234 -16 -14 -39 -34 -53 -46 -128 -110 -288 -296 -297 -345 -1 -6
-5 -30 -9 -55 -9 -51 -9 -437 0 -840 6 -278 6 -290 6 -312 -1 -7 -1 -182 -1
-388 1 -206 0 -391 -1 -410 -1 -20 1 -40 4 -46 4 -5 4 -15 0 -21 -6 -9 -117
-47 -171 -58 -9 -2 -108 -29 -221 -60 -113 -31 -212 -58 -221 -60 -33 -7 -245
-65 -274 -74 -16 -6 -41 -12 -55 -15 -27 -6 -176 -47 -340 -94 -58 -16 -136
-37 -174 -47 -38 -9 -77 -19 -85 -21 -122 -30 -171 -41 -171 -37 0 2 -6 1 -12
-3 -7 -5 -19 -9 -28 -9 -8 -1 -28 -5 -45 -9 -39 -8 -69 -15 -130 -26 -27 -6
-61 -12 -75 -15 -14 -3 -41 -8 -60 -11 -19 -3 -54 -9 -78 -14 -47 -8 -47 -8
-56 50 -7 41 -14 82 -22 130 -4 19 -8 45 -10 58 -1 13 -10 67 -20 120 -9 53
-18 106 -20 117 -1 11 -3 20 -4 20 -1 0 -3 16 -5 35 -3 19 -7 46 -10 60 -3 14
-8 41 -11 60 -2 19 -7 46 -9 60 -3 14 -7 41 -10 60 -3 19 -12 67 -20 105 -8
39 -16 84 -18 102 -3 17 -7 35 -10 40 -3 4 -8 26 -11 48 -6 38 -10 60 -22 115
-3 14 -7 36 -10 50 -3 14 -12 59 -20 100 -9 41 -17 84 -20 95 -2 11 -8 43 -14
70 -6 28 -12 61 -15 75 -6 31 -19 93 -20 100 -1 3 -5 23 -9 45 -4 22 -14 72
-23 110 -19 91 -20 96 -27 136 -3 19 -23 120 -45 224 -21 105 -42 207 -45 229
-4 21 -8 41 -10 45 -3 3 -7 24 -10 46 -12 76 -31 138 -46 146 -16 8 -228 89
-245 94 -5 1 -17 5 -25 8 -38 16 -130 48 -137 48 -5 1 -12 4 -18 8 -5 5 -23
12 -40 16 -16 5 -34 10 -40 11 -5 2 -77 27 -160 55 -133 45 -160 51 -235 52
-143 0 -277 -59 -382 -171 -43 -46 -123 -157 -127 -177 -2 -5 -9 -23 -16 -40
-45 -97 -66 -261 -40 -321 24 -56 51 -156 47 -176 -6 -29 -59 -41 -184 -42
-120 -1 -120 -1 -142 27 -13 16 -24 36 -26 45 -5 32 -3 187 3 217 8 38 50 169
67 210 7 17 16 39 20 50 15 38 173 360 179 365 3 3 17 28 31 55 14 28 27 52
30 55 3 3 12 19 20 35 8 17 18 35 22 40 4 6 35 47 67 92 59 80 161 199 161
187 0 -4 6 -2 13 4 12 10 177 9 302 -2 99 -8 323 -22 482 -29 l62 -2 42 -60
c57 -81 110 -147 128 -162 8 -7 12 -13 8 -13 -4 0 1 -8 11 -18 9 -11 47 -53
84 -94 101 -113 218 -226 318 -307 25 -20 52 -44 61 -53 9 -10 20 -18 23 -18
4 0 26 -15 49 -33 63 -50 175 -127 187 -127 5 0 10 -3 10 -8 0 -4 21 -19 48
-32 26 -14 49 -28 52 -31 3 -3 17 -12 32 -20 61 -32 243 -124 248 -125 3 0 28
-11 55 -23 28 -13 65 -29 84 -35 33 -12 54 -36 32 -36 -12 0 -53 -32 -91 -73
l-26 -27 -25 21 c-67 60 -153 61 -213 3 -100 -97 -36 -262 104 -268 8 -1 14
-7 13 -13 -8 -40 -2 -154 11 -211 7 -31 0 -53 -36 -97 -4 -5 -19 -24 -33 -41
-25 -32 -32 -54 -17 -54 5 0 32 11 60 25 61 30 89 32 96 7 8 -24 93 -113 136
-142 19 -13 37 -25 38 -26 2 -1 -2 -29 -8 -61 -7 -32 -14 -65 -15 -73 -1 -8
-4 -26 -8 -40 -3 -14 -9 -40 -12 -57 -12 -78 -17 -100 -25 -128 -5 -16 -12
-50 -15 -75 l-7 -45 52 70 c29 39 57 72 61 73 5 2 9 10 9 18 0 8 3 14 8 14 4
1 23 24 42 51 19 28 49 68 65 89 17 21 40 51 52 67 19 25 29 29 79 31 32 1 65
4 75 7 10 3 28 8 40 10 13 3 51 19 85 36 58 28 64 29 86 16 13 -9 41 -14 67
-13 36 2 49 8 72 35 23 28 27 41 24 77 -2 24 -11 51 -19 60 -20 19 -20 16 4
59 11 19 20 37 20 40 0 3 0 10 0 15 0 6 8 10 18 10 30 0 55 35 48 65 -4 14
-12 25 -20 25 -9 0 -13 14 -12 48 2 47 -7 125 -18 179 -5 23 -1 35 24 63 16
18 30 36 30 39 0 3 10 18 23 33 12 14 31 38 41 53 11 14 28 36 38 47 18 21 24
42 11 36 -17 -8 -69 -31 -88 -39 -11 -4 -50 -21 -87 -38 l-67 -29 -66 64 c-37
35 -64 67 -62 71 3 5 8 24 11 43 3 19 10 60 17 90 7 30 12 61 12 68 0 7 41 44
91 82 50 38 96 73 101 77 6 5 24 19 40 32 174 134 677 636 842 838 67 83 115
164 157 266 8 20 19 37 23 38 22 2 49 9 120 33 43 14 89 28 103 31 14 3 83 18
154 34 71 17 133 28 137 25 4 -2 10 0 14 6 4 6 9 8 13 6 4 -2 32 0 62 5 30 5
91 12 135 15 44 3 82 8 84 10 3 3 11 2 19 -1 7 -3 24 -5 36 -5z m-1259 -21
c11 -1 25 -1 30 1 6 1 26 2 46 1 l36 -1 1 -125 1 -124 -66 -63 c-171 -163
-375 -374 -514 -532 -24 -28 -55 -63 -69 -78 -14 -16 -38 -44 -55 -64 -84 -98
-220 -244 -227 -244 -3 0 -2 17 2 38 16 70 19 95 11 86 -4 -5 -71 -92 -147
-194 -131 -173 -155 -202 -201 -240 -59 -49 -78 -60 -102 -59 -14 1 -40 -4
-58 -9 -28 -9 -34 -7 -55 16 -46 51 -171 149 -312 244 -10 7 -24 18 -30 23 -6
6 -33 26 -59 44 -91 62 -419 314 -469 360 -9 9 -38 34 -65 56 -26 22 -118 110
-204 196 l-157 155 4 159 c2 87 6 160 8 162 6 7 121 25 248 38 20 3 49 7 65 9
15 3 57 8 93 11 36 4 79 9 95 11 17 2 55 6 85 9 30 3 66 7 80 10 14 2 57 7 95
10 39 4 90 8 115 11 25 2 70 6 100 9 30 2 80 7 110 10 30 3 96 8 145 11 50 3
113 7 140 9 275 20 602 34 918 39 114 2 209 5 211 7 4 4 99 2 151 -2z m-988
-1586 c-6 -27 -12 -49 -13 -51 -1 -2 -15 3 -32 12 -16 8 -31 14 -34 13 -2 -1
13 15 33 36 21 20 42 37 47 37 5 0 5 -20 -1 -47z m-357 -1040 c0 -14 -19 -38
-25 -32 -8 8 5 39 16 39 5 0 9 -3 9 -7z"/>
<path d="M4960 6252 c-52 -7 -116 -37 -147 -69 -27 -30 -30 -38 -23 -64 12
-42 21 -51 93 -97 89 -57 96 -58 148 -18 119 90 142 218 45 242 -29 7 -86 10
-116 6z"/>
<path d="M5291 5861 c-12 -16 -21 -34 -21 -41 0 -6 -4 -8 -10 -5 -5 3 -10 2
-10 -3 0 -13 -51 -65 -85 -88 -27 -18 -43 -20 -110 -15 -26 1 -90 62 -107 102
-7 16 -15 29 -18 29 -3 0 -14 -13 -23 -30 -25 -41 -96 -97 -148 -115 -77 -28
-167 -3 -269 73 -32 24 -51 45 -87 91 -9 13 -14 14 -24 3 -11 -10 -10 -18 5
-42 9 -17 19 -43 22 -58 17 -112 126 -401 176 -467 66 -87 144 -147 212 -161
39 -8 111 -6 136 5 52 21 95 73 107 127 9 40 8 180 -2 229 -5 22 -8 48 -9 58
0 9 -4 17 -8 17 -4 0 -7 3 -6 8 3 8 -23 78 -50 135 -2 4 13 -4 34 -18 20 -14
42 -25 48 -26 6 0 22 -2 36 -3 41 -5 102 22 146 62 49 45 114 130 114 148 0
24 -28 15 -49 -15z"/>
</g>
</svg>
