<svg xmlns="http://www.w3.org/2000/svg" fill="none" viewBox="0 0 118 21"><path fill="#111" d="M1.42 19.22a7.92 7.92 0 0 1-1.4-5.06v-7.32a8.04 8.04 0 0 1 1.38-5.1c.93-1.17 2.52-1.75 4.76-1.74 2.25 0 3.77.52 4.56 1.53a6.43 6.43 0 0 1 1.34 4.38v1.71h-4.15v-1.86a9.5 9.5 0 0 0-.13-1.46 1.62 1.62 0 0 0-.47-.93 1.58 1.58 0 0 0-1.16-.36 1.5 1.5 0 0 0-.87.14 1.4 1.4 0 0 0-.63.6 5.2 5.2 0 0 0-.34 2.14v9.28a4.55 4.55 0 0 0 .39 2.14 1.48 1.48 0 0 0 1.45.72 1.37 1.37 0 0 0 1.4-.73c.25-.68.35-1.4.32-2.13v-1.95h4.14v1.69a6.92 6.92 0 0 1-1.23 4.5c-.88 1.06-2.4 1.59-4.57 1.59s-3.85-.58-4.79-1.78Zm16.29-18.94h4.75l4 20.48h-3.94l-.72-4.53h-3.32l-.8 4.5h-4.01l4.04-20.45Zm3.65 13.38-1.26-8.23-1.25 8.23h2.52Zm8.18-10.3h-3.25v-3.08h10.75v3.08h-3.21v17.37h-4.3l.01-17.37Z"/><path fill="#444" d="M45.46.28h8.15v2.13h-5.21v6.75h4.23v2.02h-4.23v7.5h5.26v2.05h-8.2v-20.45Zm10.56 0h2l6.02 13.58v-13.58h2.44v20.48h-1.87l-6.01-13.96v13.93h-2.48l-.1-20.45Zm13.7 0h8.14v2.13h-5.21v6.75h4.27v2.02h-4.23v7.5h5.23v2.05h-8.2v-20.45Zm10.55 0h4.23a7.16 7.16 0 0 1 4.68 1.28c1 .85 1.5 2.23 1.5 4.15 0 2.6-.87 4.2-2.6 4.77l3 10.25h-2.84l-2.76-9.6h-2.27v9.6h-2.94v-20.45Zm4.01 8.78c.97.09 1.93-.18 2.7-.74a3.47 3.47 0 0 0 .83-2.65 5.56 5.56 0 0 0-.3-1.95 1.83 1.83 0 0 0-.38-.62 1.9 1.9 0 0 0-.61-.43 4.89 4.89 0 0 0-2.06-.34h-1.29v6.77l1.11-.04Zm10.34 10.16a8.82 8.82 0 0 1-1.27-5.22v-6.82a12.83 12.83 0 0 1 .5-3.9 4.38 4.38 0 0 1 1.74-2.35 6.05 6.05 0 0 1 3.37-.82 5.41 5.41 0 0 1 2.26.27c.72.25 1.38.65 1.93 1.17a6.69 6.69 0 0 1 1.28 4.51v.76h-2.75v-.63a10.93 10.93 0 0 0-.18-2.26 1.95 1.95 0 0 0-.77-1.2 3.07 3.07 0 0 0-1.72-.4 2.57 2.57 0 0 0-1.81.55 2.48 2.48 0 0 0-.77 1.44 14.05 14.05 0 0 0-.17 2.43v7.6a7.15 7.15 0 0 0 .59 3.37c.27.32.61.58 1 .76a2.9 2.9 0 0 0 2.5-.05c.38-.19.72-.47.98-.8a7.72 7.72 0 0 0 .6-3.56v-1.44h-2.66v-2.02h5.31v10.12h-1.81l-.3-2.35a3.6 3.6 0 0 1-1.4 1.93 3.77 3.77 0 0 1-2.33.67 4.79 4.79 0 0 1-2.3-.37 4.65 4.65 0 0 1-1.82-1.4Zm16.05-5.7-4.53-13.24h2.72l3.22 9.87 3.16-9.87h2.76l-4.5 13.23v7.22h-2.82v-7.22Z"/></svg>