<svg xmlns="http://www.w3.org/2000/svg" fill="none" viewBox="0 0 60 50"><path fill="#FDC305" d="M51.2 19.05a22.3 22.3 0 0 0-6.88-9.13 21.67 21.67 0 0 0-10.42-4.41 21.5 21.5 0 0 0-11.2 1.47 21.95 21.95 0 0 0-9 6.96 22.58 22.58 0 0 0-4.4 10.6 22.76 22.76 0 0 0 1.37 11.44 22.31 22.31 0 0 0 6.77 9.22 21.68 21.68 0 0 0 10.36 4.56c-.5-1.82-1-3.84-1.44-5.98 1.29.86 2.65 1.6 4.07 2.23 0 0 .1 1.88.24 3.99a21.7 21.7 0 0 0 4.55-.41 1.9 1.9 0 0 1 0-.67c.25-1.63.94-4.57 1.07-6.46a13.24 13.24 0 0 0 2.48-3.24l-.05.39c-.47 3.71-1.45 7.68-2.05 8.78a4.87 4.87 0 0 1-.71 1 21.75 21.75 0 0 0 8.5-4.15 22.28 22.28 0 0 0 6-7.42 22.77 22.77 0 0 0 .75-18.77Zm-1.25 3.3c-.38.38-1.15.64-1.28-.5a30.81 30.81 0 0 1-.16-1.93s-1.65-2.99-2.27-3.02c-.62-.04-4.99 3.02-6.14 4.36-1 1.12-1.2 1.04-1.2 3.03 0 1.49.19 7.12.09 11.43l-6.97 1.9a53.8 53.8 0 0 1-6.67 1.5l-.86-5.09h-.12l-2.2-11.49s-3.25-1.26-4.45-1.6a3.16 3.16 0 0 0-1.8-.23 3.19 3.19 0 0 0-1.62.78 4.42 4.42 0 0 0-1.1 1.52 4.5 4.5 0 0 0-.38 1.84c.18.4.32.83.4 1.27.05.42-1.02.37-1.7.37-.69 0-.79-1.25-.25-2.73a19.9 19.9 0 0 1 1.56-3.26 10.35 10.35 0 0 1 1.77-2.52s.12-.3 1.07-.21c.95.09 6.22.37 6.22.37l.04-1.98a119.71 119.71 0 0 1 17.31-1.17v1.6a18.95 18.95 0 0 1 6.96-1.74.77.77 0 0 1 .66.34c.3.37 2.06 2.61 2.27 2.94a24.51 24.51 0 0 1 1.56 2.61 5.5 5.5 0 0 1-.74 1.6v.02Z"/><path fill="#F06351" d="m48.28 17.02.86 1.12a24.51 24.51 0 0 1 1.56 2.62 5.5 5.5 0 0 1-.73 1.55c-.38.38-1.16.63-1.28-.5-.13-1.14-.18-1.89-.18-1.89s-1.65-2.99-2.27-3.02c-.62-.04-4.99 3.02-6.14 4.36-1 1.12-1.2 1.04-1.2 3.03 0 1.3.15 5.8.11 9.8 1.55.17 3.83.6 4.51 1.63 0 0-.25-6.26 6.68-2.98 0 0 .24-8.54 9.8-6.35a37.5 37.5 0 0 0-11.72-9.37Zm-9-2.03a80.46 80.46 0 0 0-1.2-14.42s-.13-1.13-.74-.2a12.63 12.63 0 0 0-1.03 3.48 59.42 59.42 0 0 0-10.96.3c-.7-2.4-1.9-3.49-2.47-3.2-.58.28-.64 2.86-.64 2.86l-.29 12.35a121 121 0 0 1 17.33-1.17Z"/><path fill="#E55645" d="M38.78 39.22c.11-.93.17-2.17.2-3.54l-6.96 1.9a53.8 53.8 0 0 1-6.67 1.54l.95 4.36c0 .1 0 .2.06.29 1.3.85 2.65 1.6 4.07 2.22a36.13 36.13 0 0 0 5.88-3.6v.05a13.24 13.24 0 0 0 2.47-3.22Z"/><path fill="#000" d="M27.37 12.26c-.05-.08.85.6 1.2.8.35.22.52.37.52.52 0 .15-.22.3-.53.3-.3 0-.78-.1-.85-.23-.07-.12.51 0 .8 0h.25a6.98 6.98 0 0 1-1.4-1.39Zm6.41.1s-.85 1.12-.93 1.17c-.08.05-.15.3.16.25a6.81 6.81 0 0 0 1.04-.24c.1-.06.06-.18-.1-.16-.16.02-.58.04-.85.1l.72-1.11s.03-.1-.04-.01Zm-2.69 5.33c.4-.18.73-.48.94-.87.24-.58 0-.8-.38-.88a2.06 2.06 0 0 0-1.5.3c-.33.32-.29.64 0 .87.3.24.6.43.94.58Z"/><path fill="#F06351" d="M30.79 18.79a1.78 1.78 0 0 1-.4.52c-.24.2-.54.32-.85.33-.47.05-.94-.09-1.32-.38a1.72 1.72 0 0 1-.45-.4.85.85 0 0 0-.31-.21s.64 3.58 2.2 4.16c1.55.58 1.85-.66 1.89-1a4.99 4.99 0 0 0-.7-2.82c0-.26-.02-.09-.06-.2Z"/><path fill="#000" d="M29.33 19.78c-.4-.06-.78-.2-1.13-.41a3.02 3.02 0 0 1-.88-.83.13.13 0 0 1 0-.18.12.12 0 0 1 .14-.03.12.12 0 0 1 .04.03 2.75 2.75 0 0 0 1.8 1.14 1.78 1.78 0 0 0 .8-.26c.25-.15.45-.36.6-.6l.12-.17.09.19s.32.66.85.7c.53.03.9-.37 1.4-1.13a.12.12 0 0 1 .17-.03.13.13 0 0 1 .03.17c-.57.85-1.1 1.26-1.62 1.23a1.3 1.3 0 0 1-.55-.2 1.34 1.34 0 0 1-.4-.44 1.95 1.95 0 0 1-.64.58 1.9 1.9 0 0 1-.82.24Z"/><path fill="#FDC305" d="M31 31.53a3.25 3.25 0 0 0 3.22-3.27c0-1.81-1.44-3.28-3.21-3.28s-3.2 1.47-3.2 3.28 1.43 3.27 3.2 3.27Z"/><path fill="#111" d="m35.26 25.6-2.68 1.14.99-4.91-6.42 8.51 2.68-1.14-.98 4.92 6.4-8.53Zm-6.32 3.34 3.56-4.72-.7 3.49 1.71-.72-3.58 4.73.7-3.5-1.69.72Zm-1.2-1.29a.97.97 0 0 0 .96-.97.97.97 0 0 0-.96-.98.97.97 0 0 0-.95.98c0 .54.42.97.95.97Zm5.58 3.55a.68.68 0 0 0 .67-.7c0-.37-.3-.68-.67-.68a.68.68 0 0 0-.68.69c0 .38.3.69.68.69Zm.82-1.9a.3.3 0 0 0 .3-.3.3.3 0 0 0-.3-.3.3.3 0 0 0-.3.3c0 .16.13.3.3.3Z"/><path fill="#F06351" d="M39.24 16.57a49.68 49.68 0 0 0-4.36 4.55 27.48 27.48 0 0 1-4.54 4.27c-.19-.46-1.4-1.32-1.4-1.32s-2.68-1.88-4.44-3.35a27.53 27.53 0 0 1-2.68-2.62l-1.71-.1a19.37 19.37 0 0 0 10.26 7.72c.73-.13 2.8-1.64 4.35-2.87a49.8 49.8 0 0 0 5.13-5.15 5.6 5.6 0 0 0 .98-1.75c-.98.33-1.6.62-1.6.62Zm-17.07 5.97s-3.25-1.26-4.45-1.6a3.16 3.16 0 0 0-1.79-.23 3.19 3.19 0 0 0-1.63.78 4.42 4.42 0 0 0-1.1 1.52 4.5 4.5 0 0 0-.38 1.84c.18.4.32.83.41 1.27.04.42-1.03.37-1.71.37-.69 0-.79-1.25-.25-2.73a19.9 19.9 0 0 1 1.56-3.26c-4.66 2.48-12.83 8.2-12.83 8.2a38.4 38.4 0 0 1 7 .21c4.5.46 4.28 4.07 4.28 4.07a32.47 32.47 0 0 1 4.82-.96c1.8-.13 1.93 1.85 1.93 1.85l.46 3.36c.69-.76 1.45-1.45 2.27-2.06a5.11 5.11 0 0 1 3.74-1.13l-2.32-11.5Z"/></svg>